<svg xmlns="http://www.w3.org/2000/svg" viewBox="0 0 100 100">
  <!-- Background -->
  <rect width="100" height="100" rx="8" fill="#714B67"/>
  
  <!-- Barcode lines -->
  <rect x="15" y="25" width="4" height="35" fill="white"/>
  <rect x="22" y="25" width="2" height="35" fill="white"/>
  <rect x="27" y="25" width="6" height="35" fill="white"/>
  <rect x="36" y="25" width="3" height="35" fill="white"/>
  <rect x="42" y="25" width="2" height="35" fill="white"/>
  <rect x="47" y="25" width="5" height="35" fill="white"/>
  <rect x="55" y="25" width="2" height="35" fill="white"/>
  <rect x="60" y="25" width="4" height="35" fill="white"/>
  <rect x="67" y="25" width="3" height="35" fill="white"/>
  <rect x="73" y="25" width="2" height="35" fill="white"/>
  <rect x="78" y="25" width="7" height="35" fill="white"/>
  
  <!-- Keyboard icon -->
  <rect x="25" y="68" width="50" height="22" rx="3" fill="white"/>
  <rect x="29" y="72" width="6" height="4" rx="1" fill="#714B67"/>
  <rect x="37" y="72" width="6" height="4" rx="1" fill="#714B67"/>
  <rect x="45" y="72" width="6" height="4" rx="1" fill="#714B67"/>
  <rect x="53" y="72" width="6" height="4" rx="1" fill="#714B67"/>
  <rect x="61" y="72" width="6" height="4" rx="1" fill="#714B67"/>
  <rect x="33" y="78" width="6" height="4" rx="1" fill="#714B67"/>
  <rect x="41" y="78" width="6" height="4" rx="1" fill="#714B67"/>
  <rect x="49" y="78" width="6" height="4" rx="1" fill="#714B67"/>
  <rect x="57" y="78" width="6" height="4" rx="1" fill="#714B67"/>
  <rect x="37" y="84" width="26" height="3" rx="1" fill="#714B67"/>
</svg>
